<svg width="52" height="29" viewBox="0 0 52 29" fill="none" xmlns="http://www.w3.org/2000/svg">
<path d="M36.6931 24.0225H15.2998" stroke="#F8B13C" stroke-width="1.66667" stroke-miterlimit="10" stroke-linecap="round" stroke-linejoin="round"/>
<path d="M6.7634 24.0226H3.20007C2.11673 24.0226 1.2334 23.1393 1.2334 22.0559V3.64928C1.2334 2.56595 2.12007 1.68262 3.20007 1.68262H44.2601C45.3401 1.68262 46.2267 2.56595 46.2267 3.64928L50.7701 22.0559C50.7701 23.1393 49.8834 24.0226 48.8034 24.0226H45.2367" stroke="#F8B13C" stroke-width="1.66667" stroke-miterlimit="10" stroke-linecap="round" stroke-linejoin="round"/>
<path d="M6.7635 24.0229C6.76017 23.9429 6.75684 23.8596 6.75684 23.7763C6.75684 21.4163 8.67017 19.5029 11.0302 19.5029C13.3902 19.5029 15.3035 21.4163 15.3035 23.7763C15.3035 23.8596 15.3002 23.9396 15.2968 24.0229C15.1702 26.2696 13.3068 28.0529 11.0302 28.0529C8.7535 28.0529 6.8935 26.2696 6.7635 24.0229Z" stroke="#F8B13C" stroke-width="1.66667" stroke-miterlimit="10" stroke-linecap="round" stroke-linejoin="round"/>
<path d="M36.7 24.0229C36.6967 23.9396 36.6934 23.8596 36.6934 23.7763C36.6934 21.4163 38.6067 19.5029 40.9667 19.5029C43.3267 19.5029 45.24 21.4163 45.24 23.7763C45.24 23.8596 45.2367 23.9396 45.2334 24.0229C45.1067 26.2696 43.2434 28.0529 40.9667 28.0529C38.69 28.0529 36.8267 26.2696 36.7 24.0229Z" stroke="#F8B13C" stroke-width="1.66667" stroke-miterlimit="10" stroke-linecap="round" stroke-linejoin="round"/>
<path d="M24.0132 11.5397H5.88985C5.54318 11.5397 5.26318 11.2564 5.26318 10.9131V6.34639C5.26318 5.99973 5.54652 5.71973 5.88985 5.71973H24.0132C24.3599 5.71973 24.6399 6.00306 24.6399 6.34639V10.9131C24.6399 11.2564 24.3599 11.5397 24.0132 11.5397Z" stroke="#F8B13C" stroke-width="1.66667" stroke-miterlimit="10" stroke-linecap="round" stroke-linejoin="round"/>
<path d="M37.1397 11.5401H28.4664C28.223 11.5401 28.0264 11.3435 28.0264 11.1001V6.1568C28.0264 5.91346 28.2264 5.7168 28.4664 5.7168H37.1397C37.383 5.7168 37.5797 5.9168 37.5797 6.1568V11.0968C37.583 11.3401 37.383 11.5401 37.1397 11.5401Z" stroke="#F8B13C" stroke-width="1.66667" stroke-miterlimit="10" stroke-linecap="round" stroke-linejoin="round"/>
<path d="M40.9663 5.7168V11.5401H44.433L43.1063 5.7168H40.9663Z" stroke="#F8B13C" stroke-width="1.66667" stroke-miterlimit="10" stroke-linecap="round" stroke-linejoin="round"/>
</svg>
