<svg width="52" height="29" viewBox="0 0 52 29" fill="none" xmlns="http://www.w3.org/2000/svg">
<path d="M33.9433 22.29H18.0566" stroke="#F8B13C" stroke-width="1.77083" stroke-miterlimit="10" stroke-linecap="round" stroke-linejoin="round"/>
<path d="M34.9301 19.1738H17.1001" stroke="#F8B13C" stroke-width="1.77083" stroke-miterlimit="10" stroke-linecap="round" stroke-linejoin="round"/>
<path d="M8.13665 19.1738H1.22998" stroke="#F8B13C" stroke-width="1.77083" stroke-miterlimit="10" stroke-linecap="round" stroke-linejoin="round"/>
<path d="M18.0568 22.2901C18.0568 25.2835 15.6301 27.7101 12.6368 27.7101C9.64346 27.7101 7.2168 25.2835 7.2168 22.2901C7.2168 21.1434 7.57346 20.0801 8.18013 19.2035C9.16013 17.7935 10.7901 16.8701 12.6368 16.8701C14.4768 16.8701 16.1035 17.7868 17.0835 19.1868C17.6968 20.0635 18.0568 21.1334 18.0568 22.2901Z" stroke="#F8B13C" stroke-width="1.77083" stroke-miterlimit="10" stroke-linecap="round" stroke-linejoin="round"/>
<path d="M44.7868 22.2901C44.7868 25.2835 42.3601 27.7101 39.3668 27.7101C36.3734 27.7101 33.9468 25.2835 33.9468 22.2901C33.9468 21.1301 34.3101 20.0534 34.9301 19.1734C35.9101 17.7801 37.5334 16.8701 39.3668 16.8701C41.2001 16.8701 42.8234 17.7801 43.8034 19.1734C44.4201 20.0534 44.7868 21.1268 44.7868 22.2901Z" stroke="#F8B13C" stroke-width="1.77083" stroke-miterlimit="10" stroke-linecap="round" stroke-linejoin="round"/>
<path d="M12.6368 25.0001C14.1334 25.0001 15.3468 23.7868 15.3468 22.2901C15.3468 20.7934 14.1334 19.5801 12.6368 19.5801C11.1401 19.5801 9.92676 20.7934 9.92676 22.2901C9.92676 23.7868 11.1401 25.0001 12.6368 25.0001Z" stroke="#F8B13C" stroke-width="1.77083" stroke-miterlimit="10" stroke-linecap="round" stroke-linejoin="round"/>
<path d="M39.3633 25.0001C40.86 25.0001 42.0733 23.7868 42.0733 22.2901C42.0733 20.7934 40.86 19.5801 39.3633 19.5801C37.8666 19.5801 36.6533 20.7934 36.6533 22.2901C36.6533 23.7868 37.8666 25.0001 39.3633 25.0001Z" stroke="#F8B13C" stroke-width="1.77083" stroke-miterlimit="10" stroke-linecap="round" stroke-linejoin="round"/>
<path d="M7.21331 22.2903H1.22998V10.6403H5.85998L12.1966 2.52699C12.8666 1.66699 13.8966 1.16699 14.9833 1.16699H31.2433C32.4033 1.16699 33.4966 1.70699 34.2033 2.62699L39.9966 10.1603H48.6566C49.82 10.1603 50.7633 11.1037 50.7633 12.2703V22.2903H44.78" stroke="#F8B13C" stroke-width="1.77083" stroke-miterlimit="10" stroke-linecap="round" stroke-linejoin="round"/>
<path d="M43.7998 19.1738H50.7698" stroke="#F8B13C" stroke-width="1.77083" stroke-miterlimit="10" stroke-linecap="round" stroke-linejoin="round"/>
<path d="M11.0366 10.5233H34.89L29.9833 4.20996H15.65L11.0366 10.5233Z" stroke="#F8B13C" stroke-width="1.77083" stroke-miterlimit="10" stroke-linecap="round" stroke-linejoin="round"/>
<path d="M22.5898 4.31348V10.5235" stroke="#F8B13C" stroke-width="1.77083" stroke-miterlimit="10" stroke-linecap="round" stroke-linejoin="round"/>
<path d="M50.7699 13H45.9966V15.7367H50.7699" stroke="#F8B13C" stroke-width="1.77083" stroke-miterlimit="10" stroke-linecap="round" stroke-linejoin="round"/>
<path d="M10.5698 13H12.0765" stroke="#F8B13C" stroke-width="1.77083" stroke-miterlimit="10" stroke-linecap="round" stroke-linejoin="round"/>
</svg>
