<svg width="56" height="22" viewBox="0 0 56 22" fill="none" xmlns="http://www.w3.org/2000/svg">
<path d="M15.0498 13.7828V1.82812H44.3113C45.4962 1.82812 46.6337 2.29479 47.4722 3.12969L53.7613 9.37135C54.6107 10.2135 55.0883 11.362 55.0883 12.5578C55.0883 13.7974 54.5852 14.9203 53.7722 15.7333C53.3092 16.1964 52.7514 16.5573 52.1243 16.7833C51.6467 16.9547 51.1363 17.0495 50.6003 17.0495H15.0498V13.7828Z" stroke="#F8B13C" stroke-width="1.82292" stroke-miterlimit="10" stroke-linecap="round" stroke-linejoin="round"/>
<path d="M18.0615 4.83887H32.3277V8.44095H18.0615V4.83887Z" stroke="#F8B13C" stroke-width="1.82292" stroke-miterlimit="10" stroke-linecap="round" stroke-linejoin="round"/>
<path d="M0.908203 4.83887H9.33737V8.44095H0.908203" stroke="#F8B13C" stroke-width="1.82292" stroke-miterlimit="10" stroke-linecap="round" stroke-linejoin="round"/>
<path d="M47.0136 7.62428C47.3125 7.92689 47.0974 8.44095 46.6709 8.44095H35.3433V4.83887H43.211C43.5427 4.83887 43.8636 4.95553 44.1188 5.17064L47.0136 7.62428Z" stroke="#F8B13C" stroke-width="1.82292" stroke-miterlimit="10" stroke-linecap="round" stroke-linejoin="round"/>
<path d="M17.8862 11.4541H54.7602" stroke="#F8B13C" stroke-width="1.82292" stroke-miterlimit="10" stroke-linecap="round" stroke-linejoin="round"/>
<path d="M23.5854 17.0459C23.5854 18.9235 22.0651 20.4438 20.1875 20.4438C18.3099 20.4438 16.7896 18.9235 16.7896 17.0459" stroke="#F8B13C" stroke-width="1.82292" stroke-miterlimit="10" stroke-linecap="round" stroke-linejoin="round"/>
<path d="M37.8549 17.0459C37.8549 18.9235 36.3346 20.4438 34.457 20.4438C32.5794 20.4438 31.0591 18.9235 31.0591 17.0459" stroke="#F8B13C" stroke-width="1.82292" stroke-miterlimit="10" stroke-linecap="round" stroke-linejoin="round"/>
<path d="M9.31536 17.0459C9.31536 18.9235 7.79141 20.4438 5.91745 20.4438C4.04349 20.4438 2.51953 18.9235 2.51953 17.0459" stroke="#F8B13C" stroke-width="1.82292" stroke-miterlimit="10" stroke-linecap="round" stroke-linejoin="round"/>
<path d="M45.3291 17.0454C45.3291 18.923 46.8494 20.4434 48.727 20.4434C50.6046 20.4434 52.1249 18.923 52.1249 17.0454V16.7793" stroke="#F8B13C" stroke-width="1.82292" stroke-miterlimit="10" stroke-linecap="round" stroke-linejoin="round"/>
<path d="M0.908203 11.4531V17.0458H12.3488V1.82812H0.908203V8.44167V11.4531Z" stroke="#F8B13C" stroke-width="1.82292" stroke-miterlimit="10" stroke-linecap="round" stroke-linejoin="round"/>
<path d="M12.3486 13.7822H15.0502" stroke="#F8B13C" stroke-width="1.82292" stroke-miterlimit="10" stroke-linecap="round" stroke-linejoin="round"/>
<path d="M12.3486 17.0459H15.0502" stroke="#F8B13C" stroke-width="1.82292" stroke-miterlimit="10" stroke-linecap="round" stroke-linejoin="round"/>
<path d="M9.33737 11.4541H0.908203" stroke="#F8B13C" stroke-width="1.82292" stroke-miterlimit="10" stroke-linecap="round" stroke-linejoin="round"/>
<path d="M0.908203 20.4443H55.0926" stroke="#F8B13C" stroke-width="1.82292" stroke-miterlimit="10" stroke-linecap="round" stroke-linejoin="round"/>
</svg>
